<?xml version="1.0" standalone="no"?>
<!DOCTYPE svg PUBLIC "-//W3C//DTD SVG 20010904//EN"
 "http://www.w3.org/TR/2001/REC-SVG-20010904/DTD/svg10.dtd">
<svg version="1.0" xmlns="http://www.w3.org/2000/svg"
 width="700.000000pt" height="700.000000pt" viewBox="0 0 700.000000 700.000000"
 preserveAspectRatio="xMidYMid meet">
<metadata>
Created by potrace 1.14, written by Peter Selinger 2001-2017
</metadata>
<g transform="translate(0.000000,700.000000) scale(0.100000,-0.100000)"
fill="#000000" stroke="none">
<path d="M1855 6120 c-74 -12 -165 -38 -165 -48 0 -4 26 -26 57 -48 l56 -41
111 4 111 4 -62 -27 c-35 -14 -63 -30 -63 -34 0 -4 22 -23 50 -42 l49 -35 159
54 158 53 55 -16 c30 -10 47 -19 39 -22 -123 -43 -305 -113 -312 -120 -11 -11
82 -72 110 -72 9 0 99 27 199 61 180 60 182 60 214 43 l33 -16 -25 -13 c-13
-7 -94 -38 -179 -70 -85 -32 -159 -61 -163 -65 -5 -4 17 -23 48 -43 66 -41 39
-45 296 41 l145 49 27 -19 c15 -11 27 -23 27 -28 0 -4 -76 -36 -169 -71 -186
-69 -185 -68 -107 -116 47 -30 58 -29 240 36 l135 48 22 -24 c14 -14 19 -27
13 -32 -5 -5 -61 -31 -124 -56 -170 -70 -162 -61 -93 -106 l60 -40 112 41 c62
22 118 40 125 40 7 0 18 -12 25 -27 15 -33 4 -44 -73 -69 -28 -10 -64 -23 -80
-29 l-29 -13 57 -37 56 -38 59 18 c32 10 63 15 69 11 12 -7 49 -158 57 -236 3
-30 8 -73 11 -95 l5 -39 -113 110 c-163 159 -296 240 -503 310 -247 82 -559
83 -800 2 -98 -33 -295 -134 -365 -188 -36 -27 -101 -83 -145 -124 l-80 -75
79 -1 78 0 62 48 c87 69 131 98 121 81 -5 -7 -26 -40 -48 -72 -21 -32 -37 -61
-34 -63 3 -3 36 -2 74 2 l68 7 98 124 c80 101 107 128 143 145 25 11 48 18 50
15 3 -3 -38 -64 -90 -137 -53 -73 -96 -139 -96 -147 0 -12 8 -14 38 -9 20 3
51 6 67 6 27 0 42 16 150 159 l120 160 43 0 44 1 -44 -62 c-47 -67 -66 -98
-53 -86 4 4 27 -6 51 -22 23 -17 45 -30 47 -30 3 0 38 43 78 95 72 95 87 105
130 87 14 -6 0 -31 -78 -142 -131 -188 -127 -170 -44 -170 l69 0 101 129 c56
72 105 133 111 136 8 5 43 -8 58 -21 2 -1 -33 -54 -77 -117 -45 -63 -81 -120
-81 -126 0 -7 24 -11 64 -11 l65 0 76 100 c43 55 81 100 85 100 4 0 18 -8 31
-19 l23 -19 -49 -73 c-28 -41 -51 -77 -53 -81 -2 -5 27 -8 65 -8 l69 0 37 50
c45 60 42 60 145 -35 79 -74 151 -164 190 -240 l25 -50 -6 -738 -6 -739 -245
-249 -246 -248 0 -275 0 -274 -67 -16 c-38 -10 -92 -24 -120 -32 l-53 -15 0
-119 0 -118 -39 -39 c-61 -61 -67 -131 -16 -192 83 -98 245 -35 245 94 0 38
-34 98 -64 115 -25 13 -26 17 -26 96 l0 83 48 14 c26 8 79 23 119 33 54 14 73
23 78 39 4 11 9 139 12 285 l5 265 176 178 c97 97 180 177 184 177 5 0 8 -68
8 -152 l0 -152 -119 -121 c-137 -138 -136 -135 -127 -302 3 -59 9 -178 12
-264 l6 -156 -31 -22 c-41 -29 -61 -70 -61 -121 0 -55 26 -96 75 -120 52 -25
76 -25 126 1 30 15 46 32 60 65 28 61 18 106 -35 158 l-41 42 6 267 6 268 60
61 60 60 8 -204 c4 -111 11 -210 15 -218 5 -8 58 -29 122 -46 l113 -31 3 -77
3 -78 -40 -43 c-64 -70 -64 -155 0 -209 71 -60 173 -37 218 51 26 52 2 137
-50 174 l-29 20 0 119 0 119 -52 15 c-29 8 -83 23 -120 32 l-68 18 0 293 c0
170 4 294 9 298 5 3 91 -74 190 -171 l181 -176 0 -129 0 -128 31 -17 c30 -15
33 -15 58 4 26 19 26 20 28 168 l3 149 -243 249 -242 249 -4 124 c-1 68 0 135
4 150 l6 26 48 -47 48 -48 7 -121 c8 -138 20 -167 66 -167 52 0 60 26 60 190
l0 145 -125 125 -125 125 0 628 0 629 31 59 c38 72 138 188 221 258 l63 53 25
-33 c57 -74 50 -70 123 -67 l68 3 -51 72 c-27 39 -50 78 -50 85 0 15 46 42 58
34 4 -2 39 -47 77 -100 l70 -95 73 -1 72 0 -90 124 c-49 68 -90 126 -90 129 0
3 13 10 30 15 28 10 32 8 78 -43 27 -29 77 -92 112 -139 l64 -86 51 0 c93 0
94 -5 -79 235 l-57 80 32 8 c17 4 37 6 44 3 7 -2 65 -75 130 -160 l118 -156
70 0 c54 0 67 3 60 13 -16 19 -176 238 -202 275 l-22 32 38 0 c37 0 40 -3 162
-165 l125 -165 57 0 c32 0 61 5 64 10 4 6 -22 50 -57 98 -95 129 -130 183
-125 188 2 3 26 0 51 -7 43 -11 53 -20 131 -123 131 -172 114 -157 190 -154
l65 3 -36 50 c-19 28 -40 58 -46 69 -10 18 -9 18 22 0 17 -11 61 -43 96 -71
l63 -53 78 0 78 1 -71 68 c-171 165 -393 292 -611 352 -99 27 -347 37 -477 20
-249 -33 -496 -164 -718 -380 -78 -75 -108 -99 -108 -85 0 84 50 337 69 349 4
2 34 -4 67 -14 l59 -19 52 37 c29 20 53 39 53 43 0 3 -40 21 -90 39 -49 17
-90 33 -90 35 0 11 25 54 31 54 4 0 58 -16 119 -35 61 -19 116 -35 121 -35 9
0 119 68 119 74 0 2 -58 25 -128 51 -165 60 -162 58 -133 89 l23 25 160 -55
c88 -31 165 -53 172 -51 6 3 31 19 55 37 28 21 40 35 33 42 -5 5 -81 36 -168
68 -88 31 -159 61 -159 65 0 4 12 17 26 28 l27 19 187 -62 c206 -69 197 -68
267 -10 l32 27 -105 41 c-57 22 -142 55 -188 72 -78 30 -83 34 -65 47 10 8 28
16 39 19 11 2 106 -24 211 -60 l192 -64 56 37 c31 20 56 38 56 41 0 3 -74 33
-164 65 -91 33 -163 62 -160 66 2 4 25 12 50 18 44 11 54 9 201 -40 170 -56
167 -56 236 -1 l38 31 -32 16 c-18 10 -48 23 -68 31 -34 13 -28 14 77 10 l112
-4 55 40 c30 21 55 43 55 47 0 13 -79 30 -194 42 -164 18 -368 -1 -500 -45
-198 -66 -341 -150 -513 -301 -96 -84 -242 -304 -309 -465 -20 -50 -40 -90
-44 -90 -4 0 -11 12 -15 27 -14 59 -115 266 -160 328 -110 154 -276 314 -403
389 -101 59 -259 122 -369 146 -102 23 -355 34 -448 20z"/>
</g>
</svg>
