<?xml version="1.0" standalone="no"?>
<!DOCTYPE svg PUBLIC "-//W3C//DTD SVG 20010904//EN"
 "http://www.w3.org/TR/2001/REC-SVG-20010904/DTD/svg10.dtd">
<svg version="1.0" xmlns="http://www.w3.org/2000/svg"
 width="500.000000pt" height="500.000000pt" viewBox="0 0 500.000000 500.000000"
 preserveAspectRatio="xMidYMid meet">

<g transform="translate(0.000000,500.000000) scale(0.100000,-0.100000)"
fill="#000000" stroke="none">
<path d="M1525 4254 c-77 -12 -135 -26 -135 -33 0 -5 17 -20 38 -33 35 -24 45
-25 137 -22 l100 4 -62 -22 c-35 -12 -63 -25 -63 -29 0 -4 16 -17 35 -29 l35
-21 111 41 c101 37 115 39 148 29 20 -6 40 -15 44 -19 5 -4 -48 -27 -117 -51
l-124 -43 33 -23 c19 -13 41 -23 49 -23 8 0 72 21 143 46 127 45 128 45 161
28 40 -22 40 -22 -115 -76 -68 -24 -123 -46 -123 -50 0 -3 15 -16 34 -27 l34
-21 140 49 140 50 23 -25 c12 -13 20 -26 18 -28 -3 -3 -60 -25 -129 -49 l-124
-44 38 -26 38 -25 118 41 c117 41 119 41 139 23 12 -11 21 -22 21 -25 0 -3
-45 -24 -100 -45 -55 -21 -100 -42 -100 -45 0 -3 16 -16 34 -28 l35 -22 88 30
c82 27 89 28 100 12 23 -30 14 -40 -53 -64 l-66 -25 38 -25 c38 -25 40 -25 81
-10 23 8 45 13 47 10 12 -12 37 -131 43 -202 l6 -78 -73 75 c-160 165 -360
257 -594 272 -181 12 -338 -22 -494 -106 -78 -42 -174 -114 -226 -169 l-30
-31 47 0 c42 0 56 6 120 55 39 30 76 55 80 55 5 0 -7 -21 -26 -47 -53 -75 -53
-73 -4 -73 44 0 44 0 118 96 56 73 83 101 112 112 21 8 40 12 44 9 4 -5 -78
-125 -140 -204 -7 -10 1 -13 37 -13 l47 0 87 120 c84 115 88 119 125 120 20 0
37 -3 37 -6 0 -3 -36 -55 -80 -115 -44 -59 -80 -110 -80 -113 0 -4 19 -6 43
-6 l44 0 83 115 c85 116 99 126 144 109 15 -6 -2 -33 -122 -191 l-24 -33 46 0
46 0 71 95 c71 95 89 107 122 83 15 -12 12 -19 -29 -73 -25 -33 -55 -72 -66
-87 l-19 -28 48 0 48 0 53 75 c30 41 56 75 58 75 3 0 16 -7 29 -16 l25 -16
-40 -57 -40 -56 42 -3 c38 -3 45 0 73 34 l32 38 31 -22 c48 -35 149 -150 172
-196 19 -41 20 -59 20 -577 l0 -534 -175 -175 -175 -174 -2 -200 -3 -200 -80
-21 -80 -22 -3 -85 c-2 -77 -5 -88 -26 -101 -30 -20 -50 -70 -42 -103 25 -98
167 -98 192 0 8 34 -12 83 -43 103 -21 14 -24 22 -21 76 l3 60 83 22 c45 12
85 25 90 29 4 4 9 97 11 205 l3 198 134 134 134 134 0 -121 0 -120 -91 -89
-91 -90 7 -210 7 -210 -31 -29 c-25 -24 -31 -38 -31 -70 0 -88 98 -129 161
-67 40 41 40 91 -1 133 l-30 30 0 194 0 194 41 45 c23 25 45 45 50 45 5 0 9
-63 9 -139 0 -77 3 -146 6 -155 3 -9 32 -23 63 -32 131 -36 121 -29 121 -90 0
-50 -3 -58 -35 -88 -28 -27 -35 -41 -35 -70 0 -109 161 -133 189 -29 12 43 -6
95 -38 112 -18 10 -21 23 -23 98 l-3 86 -80 22 -80 21 -3 225 -2 224 135 -135
135 -135 0 -80 c0 -92 12 -119 51 -113 24 3 24 5 27 118 l2 115 -175 175 -175
175 0 112 c0 62 4 113 8 113 4 0 27 -19 50 -42 l41 -43 3 -95 c3 -91 4 -95 26
-98 44 -6 52 12 52 121 l0 101 -90 92 -90 91 0 452 0 452 26 52 c16 31 61 86
111 136 l85 84 32 -37 c28 -34 35 -37 74 -34 l44 3 -36 47 c-20 26 -36 51 -36
57 0 10 32 31 47 31 4 0 31 -32 58 -70 50 -69 50 -69 98 -70 l48 0 -66 87 -66
88 30 14 c17 8 32 13 34 10 2 -2 37 -48 77 -101 l72 -98 45 0 c51 0 54 -9 -39
116 -37 50 -68 95 -68 101 0 6 14 13 31 15 30 5 35 0 118 -113 l86 -118 48 -1
47 0 -90 115 c-49 63 -90 117 -90 120 0 3 16 5 35 5 32 0 39 -7 122 -120 l88
-119 48 -1 47 0 -70 96 c-93 124 -93 127 -38 111 38 -11 52 -25 117 -110 74
-97 74 -97 118 -97 49 0 49 -4 -6 74 l-35 48 30 -15 c16 -9 54 -36 84 -61 49
-41 60 -46 105 -46 l50 1 -70 64 c-85 78 -246 176 -343 209 -187 64 -413 59
-598 -13 -99 -38 -231 -129 -328 -225 l-79 -79 6 74 c7 77 32 188 46 202 4 4
26 1 49 -8 41 -17 41 -17 77 11 l36 27 -62 24 c-35 13 -64 25 -66 27 -8 8 21
57 31 53 6 -2 46 -16 88 -32 l77 -27 36 22 c20 12 33 26 28 30 -4 4 -49 22
-100 40 -84 30 -91 34 -82 52 6 10 17 22 25 25 8 3 66 -13 128 -35 l114 -40
37 25 38 26 -124 45 c-68 24 -126 46 -128 48 -3 3 6 15 20 28 l24 24 137 -49
137 -50 36 23 c34 22 45 38 26 38 -19 0 -261 93 -261 100 0 4 14 13 31 20 33
14 26 16 200 -45 l107 -37 37 25 c44 30 59 20 -107 78 -54 19 -98 37 -98 41 0
4 19 12 42 19 46 12 50 11 185 -39 l81 -30 36 24 c20 14 36 28 36 32 0 5 -28
18 -62 30 l-63 22 100 -4 c92 -3 102 -2 137 22 21 13 36 28 33 32 -10 17 -182
33 -292 27 -309 -17 -599 -213 -748 -507 -18 -36 -38 -84 -45 -107 -13 -42
-30 -58 -30 -28 0 28 -83 201 -125 260 -23 33 -87 103 -141 155 -82 78 -116
103 -194 142 -52 26 -132 56 -178 68 -80 20 -264 33 -327 24z"/>
</g>
</svg>
