<?xml version="1.0" standalone="no"?>
<!DOCTYPE svg PUBLIC "-//W3C//DTD SVG 20010904//EN"
 "http://www.w3.org/TR/2001/REC-SVG-20010904/DTD/svg10.dtd">
<svg version="1.0" xmlns="http://www.w3.org/2000/svg"
 width="1200.000000pt" height="1200.000000pt" viewBox="0 0 1200.000000 1200.000000"
 preserveAspectRatio="xMidYMid meet">

<g transform="translate(0.000000,1200.000000) scale(0.100000,-0.100000)"
fill="#000000" stroke="none">
<path d="M3265 10493 c-136 -13 -365 -64 -365 -83 0 -4 45 -40 100 -80 l100
-71 98 11 c53 6 148 10 211 8 l114 -3 -132 -49 c-73 -28 -134 -53 -136 -57 -3
-3 37 -34 87 -67 l91 -60 246 85 c135 47 261 88 280 90 37 6 217 -45 204 -58
-5 -3 -111 -44 -238 -89 -254 -91 -335 -123 -335 -130 0 -9 180 -120 194 -120
8 0 160 49 337 110 l323 110 55 -33 c30 -17 56 -37 58 -42 2 -6 -108 -51 -244
-100 -137 -49 -283 -103 -325 -120 l-78 -31 88 -57 c48 -31 94 -59 103 -62 8
-3 160 44 338 105 l323 110 37 -29 c20 -16 45 -38 55 -50 23 -25 49 -13 -299
-141 -137 -51 -258 -97 -269 -102 -16 -9 -6 -18 70 -69 49 -32 96 -59 104 -59
17 0 269 84 450 150 l115 42 43 -49 c23 -26 41 -52 39 -56 -1 -5 -95 -46 -207
-92 -113 -45 -222 -90 -244 -99 l-39 -17 96 -64 96 -64 201 69 c111 39 207 70
215 70 7 0 24 -19 38 -43 47 -79 51 -74 -136 -142 l-168 -61 68 -46 c129 -85
117 -83 233 -42 57 20 106 32 110 28 12 -12 65 -219 84 -324 18 -103 39 -331
30 -339 -3 -3 -27 19 -53 49 -277 328 -602 546 -1013 680 -170 55 -278 76
-493 96 -153 14 -202 15 -325 5 -342 -28 -528 -79 -840 -233 -246 -121 -368
-208 -575 -410 l-120 -117 124 -1 123 0 57 49 c64 55 283 212 289 207 2 -2
-35 -61 -82 -132 -47 -70 -85 -129 -83 -130 1 -1 54 0 117 3 l115 6 40 52
c123 162 276 353 301 376 25 23 189 87 199 78 2 -2 -48 -74 -111 -159 -138
-187 -249 -348 -243 -353 2 -3 54 -2 116 1 l112 5 124 161 c68 88 163 214 212
279 l87 117 80 0 c61 0 77 -3 72 -12 -5 -7 -47 -67 -94 -133 -84 -118 -120
-173 -83 -127 l19 23 77 -50 76 -50 44 52 c24 29 79 99 122 157 43 58 81 109
85 113 8 9 140 -11 140 -22 0 -8 -23 -43 -200 -296 -81 -115 -150 -216 -154
-222 -6 -10 18 -13 106 -12 l113 0 105 136 c188 243 261 333 271 333 17 0 109
-42 109 -50 0 -4 -26 -43 -57 -86 -149 -208 -223 -317 -223 -330 0 -11 22 -14
108 -14 l107 1 58 79 c32 43 92 122 134 174 l75 95 47 -24 c25 -13 52 -28 60
-34 11 -7 -6 -38 -83 -150 l-96 -141 113 0 113 0 62 85 c34 47 68 85 76 85 23
0 152 -109 257 -216 122 -126 201 -233 252 -342 l40 -87 -6 -1270 -7 -1270
-414 -415 c-228 -228 -419 -425 -425 -437 -8 -15 -11 -165 -11 -480 l0 -458
-200 -54 -200 -54 0 -206 -1 -206 -52 -35 c-91 -61 -133 -188 -93 -284 52
-124 199 -182 320 -125 166 78 178 314 21 413 l-45 29 0 143 0 143 48 14 c26
8 120 33 209 57 l161 43 6 56 c2 31 9 83 14 116 6 33 11 228 11 433 l1 374
309 309 c171 170 317 309 325 309 14 0 16 -32 16 -268 l0 -267 -201 -200
c-111 -110 -207 -214 -215 -232 -21 -48 -20 -459 1 -510 12 -28 15 -84 14
-277 l0 -241 -47 -30 c-126 -81 -149 -266 -44 -368 49 -47 98 -67 169 -67 146
0 259 145 224 286 -16 64 -64 130 -112 155 l-40 20 5 267 c3 147 9 360 12 473
l5 205 104 104 c66 66 108 101 114 95 5 -6 11 -155 14 -340 3 -233 8 -341 17
-366 l13 -37 201 -54 201 -54 3 -145 3 -145 -45 -31 c-66 -47 -97 -99 -103
-176 -7 -80 8 -127 56 -180 48 -53 101 -77 175 -77 110 0 191 62 223 170 29
100 -15 215 -104 267 l-43 25 0 207 0 207 -202 55 -203 55 -3 522 c-2 493 -1
522 15 522 10 0 157 -139 331 -313 l312 -312 0 -208 0 -209 29 -29 c41 -40 91
-40 132 0 l29 29 0 252 0 252 -77 81 c-43 45 -226 231 -407 414 -181 183 -333
338 -338 345 -10 17 -11 538 0 538 4 0 48 -42 99 -92 l91 -93 6 -198 c7 -228
15 -258 69 -276 44 -15 78 -6 109 26 23 24 23 26 23 279 l0 254 -213 213 -212
212 2 1090 3 1090 37 75 c49 98 119 190 248 324 111 115 246 230 260 221 5 -3
37 -43 71 -90 l63 -85 113 0 114 0 -52 73 c-28 39 -72 103 -97 141 -52 77 -53
74 33 118 l39 21 33 -39 c18 -22 79 -101 135 -176 l103 -137 113 -1 114 0 -44
60 c-162 223 -268 371 -268 374 0 6 98 46 113 46 23 0 111 -101 255 -293 l132
-177 98 0 c53 0 102 4 108 8 7 4 -30 62 -103 162 -136 184 -241 333 -249 353
-4 11 8 18 46 26 28 6 59 11 70 11 29 0 75 -54 267 -312 l177 -238 112 0 112
0 -199 267 c-109 146 -199 270 -199 275 0 4 31 8 69 8 l70 0 90 -117 c50 -65
146 -191 213 -280 l123 -163 114 0 c89 0 111 3 104 13 -93 117 -357 496 -351
503 6 5 202 -46 208 -55 83 -116 336 -444 345 -447 6 -3 57 -3 113 -2 l102 3
-85 124 c-47 69 -83 127 -80 129 8 8 167 -102 263 -182 l90 -76 123 0 123 0
-69 71 c-143 144 -300 266 -472 365 -54 31 -121 71 -149 90 -120 78 -408 181
-600 214 -94 16 -162 20 -357 20 -282 0 -404 -15 -602 -72 -147 -43 -432 -170
-452 -200 -4 -8 -45 -36 -91 -63 -171 -102 -341 -244 -487 -405 -55 -60 -104
-110 -109 -110 -13 0 2 204 23 331 23 136 80 329 96 329 7 0 56 -16 110 -35
53 -19 102 -32 108 -28 7 4 50 34 95 67 l84 59 -57 23 c-31 13 -103 40 -160
60 l-104 36 15 37 c9 20 18 42 21 49 12 28 55 21 245 -41 l196 -64 98 63 97
63 -29 12 c-96 38 -175 67 -299 110 -77 27 -143 53 -148 58 -11 11 7 47 40 82
l25 27 281 -94 280 -94 90 58 c49 32 89 62 89 67 -1 11 -61 35 -355 141 l-249
89 52 48 c28 26 60 47 69 47 10 0 154 -47 320 -105 166 -58 309 -105 319 -105
23 0 196 116 184 124 -15 9 -332 133 -452 176 -191 69 -193 70 -175 90 8 9 38
27 65 40 l50 24 332 -112 332 -111 98 62 98 62 -32 14 c-26 11 -476 176 -537
197 -26 9 3 25 90 50 l84 24 272 -91 272 -91 92 63 c50 35 92 69 92 74 -1 6
-60 33 -132 60 l-131 50 102 3 c57 2 151 -2 211 -8 l107 -11 101 72 c55 39 97
75 92 79 -14 14 -193 48 -311 61 -147 15 -515 7 -639 -15 -225 -39 -488 -142
-717 -281 -129 -78 -161 -101 -245 -177 -35 -32 -69 -58 -76 -58 -21 0 -62
-38 -161 -147 -76 -84 -92 -108 -83 -119 9 -11 8 -14 -7 -15 -23 0 -38 -20
-144 -183 -100 -155 -175 -301 -233 -456 -24 -63 -48 -115 -53 -115 -5 0 -22
36 -37 80 -28 81 -95 239 -148 350 -77 163 -239 374 -430 561 -161 157 -221
208 -323 271 -297 184 -625 297 -932 323 -113 9 -353 11 -439 3z"/>
</g>
</svg>
