<?xml version="1.0" encoding="utf-8"?>
<!-- Generator: Adobe Illustrator 26.3.1, SVG Export Plug-In . SVG Version: 6.00 Build 0)  -->
<svg version="1.1"
	 id="Layer_1" xmlns:cc="http://creativecommons.org/ns#" xmlns:rdf="http://www.w3.org/1999/02/22-rdf-syntax-ns#" xmlns:dc="http://purl.org/dc/elements/1.1/"
	 xmlns="http://www.w3.org/2000/svg" xmlns:xlink="http://www.w3.org/1999/xlink" x="0px" y="0px" viewBox="0 0 796 419"
	 style="enable-background:new 0 0 796 419;" xml:space="preserve">
<style type="text/css">
	.st0{fill:#B2B2B2;}
	.st1{fill:#CCCCCC;}
	.st2{fill:#FFCC00;}
</style>
<g transform="translate(733.84966,-1242.6343)">
	<path d="M62.2,1662h-796v-419h796L62.2,1662L62.2,1662z"/>
	<path class="st0" d="M-652.6,1324h-8.7l-6.2-18.7l-6.2,18.7h-8.7l-8.4-42.3h10.2l4,23.9l6.7-20.1h5.1l6.6,19.8l4-23.6h10.2
		L-652.6,1324L-652.6,1324z"/>
	<path class="st0" d="M-639.9,1324v-42.3h33.6v7.3H-630v10h16.1v7.7H-630v10h23.8v7.3L-639.9,1324L-639.9,1324z"/>
	<path class="st0" d="M-578.5,1307v17.3h-9.7l-0.1-17.3l-15.4-25h11.4l9,16.7l8.7-16.7h11.1L-578.5,1307L-578.5,1307z"/>
	<path class="st0" d="M-559.3,1324v-42.3h9.8v35h21.7v7.3H-559.3L-559.3,1324z"/>
	<path class="st0" d="M-506.3,1294l-4.2,12.7h8.3L-506.3,1294z M-495.8,1324l-3.8-10.4H-513l-3.4,10.4h-9.8l15.4-42.3h8.9l15.5,42.3
		H-495.8L-495.8,1324z"/>
	<path class="st0" d="M-457,1324l-15.4-24l0.1,24h-9.7v-42.3h8.5l15.4,24v-24h9.6v42.3H-457L-457,1324z"/>
	<path class="st0" d="M-416.2,1289h-14v27.6h14V1289z M-413.2,1324h-26.9v-42.3h26.9l6.7,5.3v31.7L-413.2,1324L-413.2,1324z"/>
	<path class="st0" d="M-398.9,1302h25.3v7h-25.3V1302z"/>
	<path class="st0" d="M-345,1307v17.3h-9.7l-0.1-17.3l-15.4-25h11.4l9,16.7l8.7-16.7h11.1L-345,1307L-345,1307z"/>
	<path class="st0" d="M-299,1324h-20.1l-6.7-5.3v-37h9.8v35h14v-35h9.8v37L-299,1324L-299,1324z"/>
	<path class="st0" d="M-249.4,1289h-14v35h-9.8v-35l-14,0.1v-7.4h37.8L-249.4,1289L-249.4,1289z"/>
	<path class="st0" d="M-234.2,1294l-4.2,12.7h8.3L-234.2,1294z M-223.7,1324l-3.8-10.4h-13.5l-3.4,10.4h-9.8l15.4-42.3h8.9
		l15.5,42.3H-223.7L-223.7,1324z"/>
	<path class="st0" d="M-185,1324l-15.4-24l0.1,24h-9.7v-42.3h8.5l15.4,24v-24h9.6v42.3H-185L-185,1324z"/>
	<path class="st0" d="M-158.2,1324h-9.8v-42.3h9.8V1324z"/>
	<path class="st0" d="M-102.9,1324h-19l-6.7-5.3V1287l6.7-5.3h19l6.7,5.3v2h-22.8v27.6h22.8v2.1L-102.9,1324L-102.9,1324z"/>
	<path class="st0" d="M-66.1,1289h-14v27.6h14V1289z M-63.1,1324h-20.1l-6.7-5.3v-31.7l6.7-5.3h20.1l6.7,5.3v31.7
		C-56.3,1318.7-63.1,1324-63.1,1324z"/>
	<path class="st0" d="M-24.1,1289h-14v11h14V1289z M-23.5,1324l-8.1-16.3h-6.5v16.3h-9.8v-42.3h26.8l6.7,5.3v15.4l-6.7,5.3l8.4,16.3
		L-23.5,1324L-23.5,1324z"/>
	<path class="st0" d="M16.6,1289h-14v11.3h14V1289z M19.6,1307.7h-17v16.3h-9.8v-42.3h26.8l6.7,5.3v15.4L19.6,1307.7L19.6,1307.7z"
		/>
	<path class="st0" d="M-671.3,1592l-5.3-20.4h10.2v20.4H-671.3L-671.3,1592z M-683.4,1592l-5.3-20.4h10.2v20.4H-683.4L-683.4,1592z"
		/>
	<path class="st0" d="M-637.6,1600h-12.5v11.9h12.5V1600z M-637.6,1580.5h-12.5v11.2h12.5V1580.5z M-634.9,1620.3h-23.9v-48.1h23.9
		l6,6v13.9l-3.8,3.8l3.8,3.8v14.7L-634.9,1620.3L-634.9,1620.3z"/>
	<path class="st0" d="M-592.2,1620h-2l-6.8-4.4l-4.4,4.4h-10.1l-6-6v-32.2h8.7v29.9h11.7v-29.9h8.7L-592.2,1620L-592.2,1620z"/>
	<path class="st0" d="M-576,1620h-8.7v-38.2h8.7V1620z M-584.7,1568.9h8.7v9h-8.7V1568.9z"/>
	<path class="st0" d="M-559.7,1620h-8.8v-48.2l7.1-2.8l1.7-0.2V1620L-559.7,1620z"/>
	<path class="st0" d="M-531.7,1590h-11.7v21.6h11.7V1590z M-523,1619.9h-2l-6.8-4.4l-4.4,4.4h-10.1l-6-6v-26.2l6-6h10.1l4.4,4.4
		v-14.4l7-2.7h1.7V1619.9L-523,1619.9z"/>
	<path class="st0" d="M-506.7,1620h-8.7v-38.2h8.7V1620z M-515.4,1568.9h8.7v9h-8.7V1568.9z"/>
	<path class="st0" d="M-470.1,1620h-8.7v-29.9h-11.7v29.9h-8.7v-38.2h2l6.8,4.4l4.4-4.4h10.1l6,6L-470.1,1620L-470.1,1620z"/>
	<path class="st0" d="M-441.4,1590h-12.5v18h12.5V1590z M-434.5,1581.7h1.8v44.2l-6,6h-17.5l-6-6v-2h20.8v-12.1l-4.4,4.4h-10.8l-6-6
		v-22.5l6-6h10.8l4.4,4.4L-434.5,1581.7L-434.5,1581.7z"/>
	<path class="st0" d="M-385.1,1600h-12.5v11.9h12.5V1600z M-385.1,1580.5h-12.5v11.2h12.5V1580.5z M-382.4,1620.3h-23.9v-48.1h23.9
		l6,6v13.9l-3.8,3.8l3.8,3.8v14.7L-382.4,1620.3L-382.4,1620.3z"/>
	<path class="st0" d="M-347.7,1590h-12.5v7.1h12.5V1590z M-345,1619.9h-17.9l-6-6v-26.2l6-6h17.9l6,6v11.4l-6,6h-15.2v6.8h21.2v2
		L-345,1619.9L-345,1619.9z"/>
	<path class="st0" d="M-321.8,1590v21.6h8.1v8.3h-10.8l-6-6V1590h-4.5v-2l4.5-6.4v-9.5l6.8-3.4h1.9v12.8h8.3v8.3H-321.8L-321.8,1590
		z"/>
	<path class="st0" d="M-298.6,1590v21.6h8.1v8.3h-10.8l-6-6V1590h-4.5v-2l4.5-6.4v-9.5l6.8-3.4h1.9v12.8h8.3v8.3H-298.6L-298.6,1590
		z"/>
	<path class="st0" d="M-264.2,1590h-12.5v7.1h12.5V1590z M-261.5,1619.9h-17.9l-6-6v-26.2l6-6h17.9l6,6v11.4l-6,6h-15.2v6.8h21.2v2
		L-261.5,1619.9L-261.5,1619.9z"/>
	<path class="st0" d="M-223.9,1590h-15.7v29.9h-8.6l-0.1-38.2h2l6.8,4.4l4.4-4.4h7l4.4,4.4L-223.9,1590L-223.9,1590z"/>
	<path class="st0" d="M-170.3,1620h-7.7l-5.6-21.3l-5.6,21.3h-7.7l-7.5-48.1h9.1l3.5,27.2l5.9-22.8h4.6l5.9,22.5l3.6-26.8h9.1
		L-170.3,1620L-170.3,1620z"/>
	<path class="st0" d="M-137.7,1590h-12.5v21.6h12.5V1590z M-135,1619.9h-17.9l-6-6v-26.2l6-6h17.9l6,6v26.2L-135,1619.9z"/>
	<path class="st0" d="M-97.1,1590h-15.7v29.9h-8.6l-0.1-38.2h2l6.8,4.4l4.4-4.4h7l4.4,4.4L-97.1,1590L-97.1,1590z"/>
	<path class="st0" d="M-83.8,1620h-8.8v-48.2l7.1-2.8l1.7-0.2L-83.8,1620L-83.8,1620z"/>
	<path class="st0" d="M-55.8,1590h-11.7v21.6h11.7V1590z M-47.1,1619.9h-2l-6.8-4.4l-4.4,4.4h-10.1l-6-6v-26.2l6-6h10.1l4.4,4.4
		v-14.4l7-2.7h1.7L-47.1,1619.9L-47.1,1619.9z"/>
	<path class="st0" d="M-18,1620h-15.6l-6-6v-2h18.9v-7.2h-12.9l-6-6v-11.1l6-6H-18l6,6v2h-18.9v6.8H-18l6,6v11.4L-18,1620L-18,1620z
		"/>
	<path class="st0" d="M12.6,1592h-5v-20.4h10.2C17.9,1571.6,12.6,1592,12.6,1592z M0.5,1592h-5v-20.4H5.8L0.5,1592L0.5,1592z"/>
</g>
<g id="layer1" transform="translate(-9.693679e-7,-22.4369)">
	<g id="g4208-3-0" transform="matrix(0.89925137,0,0,0.89925137,1.0182507e-6,-100.29027)">
		<g id="g3834-3-33-2" transform="matrix(0.98507003,0,0,0.98507003,3.3189937,-25.490176)">
			<path id="path3876-3-4-5-2" class="st1" d="M698.7,287.4v17.2l-68.9,66.3l-66.7-66.3l16.9-17.2H698.7L698.7,287.4z"/>
			<path id="path3874-2-72-3" class="st2" d="M450,287.3L450,287.3l-49.2,0.2L270.3,417.1L135.8,287.5H45.1v31.3L226,504.4l85.3,0.1
				L450,371v-0.1l138.7,133.5l85.3-0.1l180.8-185.7v-31.3h-90.7L629.6,417.1L499.2,287.4L450,287.3z"/>
			<path id="path3880-4-07-6" class="st1" d="M450,417.1l-60.6,62.4v24.9H450v-0.1h60.6v-24.9L450,417.1L450,417.1z"/>
			<path id="path3876-3-2-5-38-2" class="st1" d="M201.2,287.5v17.2l68.9,66.3l66.7-66.3l-16.9-17.2
				C319.9,287.5,201.2,287.5,201.2,287.5z"/>
		</g>
	</g>
</g>
</svg>
